<?xml version="1.0" encoding="UTF-8" standalone="no"?>
<!-- Created with Inkscape (http://www.inkscape.org/) -->

<svg
   xmlns:dc="http://purl.org/dc/elements/1.1/"
   xmlns:cc="http://creativecommons.org/ns#"
   xmlns:rdf="http://www.w3.org/1999/02/22-rdf-syntax-ns#"
   xmlns:svg="http://www.w3.org/2000/svg"
   xmlns="http://www.w3.org/2000/svg"
   xmlns:xlink="http://www.w3.org/1999/xlink"
   xmlns:sodipodi="http://sodipodi.sourceforge.net/DTD/sodipodi-0.dtd"
   xmlns:inkscape="http://www.inkscape.org/namespaces/inkscape"
   id="svg4190"
   version="1.1"
   inkscape:version="0.92.1 r15371"
   width="96"
   height="96"
   viewBox="0 0 95.999999 95.999999"
   sodipodi:docname="audacious.svg"
   inkscape:export-filename="/home/dallasarivle/Pictures/laos5.0/audacius.png"
   inkscape:export-xdpi="89.999992"
   inkscape:export-ydpi="89.999992">
  <metadata
     id="metadata4196">
    <rdf:RDF>
      <cc:Work
         rdf:about="">
        <dc:format>image/svg+xml</dc:format>
        <dc:type
           rdf:resource="http://purl.org/dc/dcmitype/StillImage" />
        <dc:title></dc:title>
      </cc:Work>
    </rdf:RDF>
  </metadata>
  <defs
     id="defs4194">
    <linearGradient
       inkscape:collect="always"
       id="linearGradient4240">
      <stop
         style="stop-color:#007fff;stop-opacity:1"
         offset="0"
         id="stop4242" />
      <stop
         style="stop-color:#2a7fff;stop-opacity:0;"
         offset="1"
         id="stop4244" />
    </linearGradient>
    <linearGradient
       inkscape:collect="always"
       xlink:href="#linearGradient4240"
       id="linearGradient4246"
       x1="440.8638"
       y1="381.65344"
       x2="1057.1479"
       y2="1062.2444"
       gradientUnits="userSpaceOnUse"
       gradientTransform="translate(0.33177567,-0.08921048)" />
  </defs>
  <sodipodi:namedview
     pagecolor="#ffffff"
     bordercolor="#666666"
     borderopacity="1"
     objecttolerance="10"
     gridtolerance="10"
     guidetolerance="10"
     inkscape:pageopacity="0"
     inkscape:pageshadow="2"
     inkscape:window-width="1313"
     inkscape:window-height="744"
     id="namedview4192"
     showgrid="false"
     inkscape:zoom="4.1225935"
     inkscape:cx="44.615838"
     inkscape:cy="58.959332"
     inkscape:window-x="53"
     inkscape:window-y="24"
     inkscape:window-maximized="1"
     inkscape:current-layer="svg4190"
     fit-margin-top="0"
     fit-margin-left="0"
     fit-margin-right="0"
     fit-margin-bottom="0" />
  <circle
     style="opacity:1;fill:url(#linearGradient4246);fill-opacity:1;fill-rule:nonzero;stroke:none;stroke-width:30;stroke-linecap:butt;stroke-linejoin:miter;stroke-miterlimit:4;stroke-dasharray:none;stroke-opacity:1"
     id="path4152"
     cx="48"
     cy="48"
     r="45" />
  <circle
     style="opacity:1;fill:#000000;fill-opacity:1;stroke:none;stroke-width:30;stroke-linecap:butt;stroke-linejoin:miter;stroke-miterlimit:4;stroke-dasharray:none;stroke-opacity:1"
     id="path4152-5"
     cx="48"
     cy="48"
     r="24.256815" />
  <g
     transform="matrix(0.20530916,0,0,0.18224374,-131.15921,-81.596307)"
     style="font-style:normal;font-variant:normal;font-weight:600;font-stretch:normal;font-size:180px;line-height:125%;font-family:Oswald;-inkscape-font-specification:'Oswald Semi-Bold';letter-spacing:0px;word-spacing:0px;fill:#007fff;fill-opacity:1;stroke:none;stroke-width:1px;stroke-linecap:butt;stroke-linejoin:miter;stroke-opacity:1"
     id="flowRoot4256">
    <path
       d="m 870.12891,758.41752 q 3.29589,0 6.71386,-2.4414 3.54004,-2.44141 5.61524,-5.3711 v -39.55078 q -10.13184,5.24903 -16.96778,13.79395 -6.71386,8.42285 -6.71386,17.57812 0,7.32422 3.05175,11.71875 3.05176,4.27246 8.30079,4.27246 z m -14.03809,27.34375 q -9.76562,-0.12207 -17.45605,-5.37109 -7.56836,-5.24902 -11.35254,-13.06152 -3.66211,-7.8125 -3.66211,-16.47949 0,-5.61524 1.09863,-10.74219 1.09863,-5.12696 2.68555,-9.15528 1.58691,-4.02832 4.5166,-7.69043 2.92969,-3.78417 5.49316,-6.46972 2.56348,-2.80762 6.71387,-5.61524 4.27246,-2.80761 7.32422,-4.5166 3.05176,-1.83105 7.93457,-4.02832 4.88281,-2.19726 7.69043,-3.2959 2.92969,-1.2207 7.93457,-3.17382 5.12695,-1.95313 7.44629,-2.80762 v -13.30567 q 0,-7.8125 -2.0752,-11.59668 -1.95312,-3.90625 -7.69043,-3.90625 -9.64355,0 -10.13183,13.54981 l -0.73243,9.88769 -35.7666,-1.46484 q 0,-2.44141 0.36621,-5.00488 1.58692,-23.19336 14.03809,-34.05762 12.45117,-10.98633 35.52246,-10.98633 21.36231,0 32.10449,11.71875 10.86426,11.71875 10.86426,32.10449 v 66.77247 q 0,16.60156 2.68555,36.25488 H 887.8291 q -3.05176,-15.99121 -3.54004,-20.75195 -2.92969,9.88769 -10.13183,16.60156 -7.08008,6.59179 -18.06641,6.59179 z"
       style="font-size:250px;text-align:center;text-anchor:middle;fill:#007fff;fill-opacity:1"
       id="path4147"
       inkscape:connector-curvature="0" />
  </g>
</svg>
