<?xml version="1.0" encoding="UTF-8" standalone="no"?>
<!-- Creator: CorelDRAW X7 -->

<svg
   xmlns:dc="http://purl.org/dc/elements/1.1/"
   xmlns:cc="http://creativecommons.org/ns#"
   xmlns:rdf="http://www.w3.org/1999/02/22-rdf-syntax-ns#"
   xmlns:svg="http://www.w3.org/2000/svg"
   xmlns="http://www.w3.org/2000/svg"
   xmlns:sodipodi="http://sodipodi.sourceforge.net/DTD/sodipodi-0.dtd"
   xmlns:inkscape="http://www.inkscape.org/namespaces/inkscape"
   xml:space="preserve"
   width="96"
   height="96"
   version="1.1"
   style="clip-rule:evenodd;fill-rule:evenodd;image-rendering:optimizeQuality;shape-rendering:geometricPrecision;text-rendering:geometricPrecision"
   viewBox="0 0 96 96"
   id="svg13"
   sodipodi:docname="icon dokumentasi.svg"
   inkscape:version="0.92.1 r15371"><metadata
     id="metadata17"><rdf:RDF><cc:Work
         rdf:about=""><dc:format>image/svg+xml</dc:format><dc:type
           rdf:resource="http://purl.org/dc/dcmitype/StillImage" /><dc:title></dc:title></cc:Work></rdf:RDF></metadata><sodipodi:namedview
     pagecolor="#ffffff"
     bordercolor="#666666"
     borderopacity="1"
     objecttolerance="10"
     gridtolerance="10"
     guidetolerance="10"
     inkscape:pageopacity="0"
     inkscape:pageshadow="2"
     inkscape:window-width="1313"
     inkscape:window-height="744"
     id="namedview15"
     showgrid="false"
     units="px"
     inkscape:zoom="1"
     inkscape:cx="-89.890249"
     inkscape:cy="64.673964"
     inkscape:window-x="53"
     inkscape:window-y="24"
     inkscape:window-maximized="1"
     inkscape:current-layer="svg13" /><defs
     id="defs4"><style
       type="text/css"
       id="style2"><![CDATA[
    .fil0 {fill:#0078BA}
    .fil1 {fill:white}
   ]]></style></defs><g
     id="g4502"
     transform="matrix(0.36,0,0,0.36,3,3)"><path
       style="fill:#0078ba"
       inkscape:connector-curvature="0"
       id="path7"
       d="M 234,31 V 235 H 33 c -9,0 -16,-7 -16,-16 0,-8 7,-15 16,-15 H 217 V 0 H 33 C 15,0 0,14 0,31 v 188 c 0,17 15,31 33,31 H 250 V 31 Z"
       class="fil0" /><path
       style="fill:#ffffff"
       inkscape:connector-curvature="0"
       id="path9"
       d="m 110,157 c 0,0 -67,-41 39,-124 42,78 -44,80 -14,138 -49,-46 13,-64 7,-102 -39,30 -48,56 -32,88 z"
       class="fil1" /></g></svg>