<?xml version="1.0" encoding="UTF-8" standalone="no"?>
<!-- Created with Inkscape (http://www.inkscape.org/) -->

<svg
   xmlns:dc="http://purl.org/dc/elements/1.1/"
   xmlns:cc="http://creativecommons.org/ns#"
   xmlns:rdf="http://www.w3.org/1999/02/22-rdf-syntax-ns#"
   xmlns:svg="http://www.w3.org/2000/svg"
   xmlns="http://www.w3.org/2000/svg"
   xmlns:sodipodi="http://sodipodi.sourceforge.net/DTD/sodipodi-0.dtd"
   xmlns:inkscape="http://www.inkscape.org/namespaces/inkscape"
   width="96"
   height="96"
   viewBox="0 0 96 96"
   id="svg2"
   version="1.1"
   inkscape:version="0.92.1 r15371"
   sodipodi:docname="terminal.svg"
   inkscape:export-filename="/home/dallasarivle/Pictures/laos5.0/ikonTerminal.png"
   inkscape:export-xdpi="90"
   inkscape:export-ydpi="90">
  <defs
     id="defs4" />
  <sodipodi:namedview
     id="base"
     pagecolor="#ffffff"
     bordercolor="#666666"
     borderopacity="1.0"
     inkscape:pageopacity="0.0"
     inkscape:pageshadow="2"
     inkscape:zoom="1.4841877"
     inkscape:cx="-91.778431"
     inkscape:cy="-50.738571"
     inkscape:document-units="px"
     inkscape:current-layer="layer1"
     showgrid="false"
     inkscape:window-width="1313"
     inkscape:window-height="744"
     inkscape:window-x="53"
     inkscape:window-y="24"
     inkscape:window-maximized="1"
     fit-margin-top="0"
     fit-margin-left="0"
     fit-margin-right="0"
     fit-margin-bottom="0"
     units="px" />
  <metadata
     id="metadata7">
    <rdf:RDF>
      <cc:Work
         rdf:about="">
        <dc:format>image/svg+xml</dc:format>
        <dc:type
           rdf:resource="http://purl.org/dc/dcmitype/StillImage" />
        <dc:title></dc:title>
      </cc:Work>
    </rdf:RDF>
  </metadata>
  <g
     inkscape:label="Layer 1"
     inkscape:groupmode="layer"
     id="layer1"
     transform="translate(-108.57144,-702.36218)">
    <g
       id="g4137"
       transform="matrix(0.17578125,0,0,0.17578125,92.486616,656.07975)">
      <circle
         r="256"
         cy="536.36224"
         cx="364.57144"
         id="path4136"
         style="opacity:1;fill:#000000;fill-opacity:1;stroke:none;stroke-width:0.5;stroke-miterlimit:4;stroke-dasharray:none;stroke-opacity:1" />
      <g
         id="flowRoot4157"
         style="font-style:normal;font-weight:normal;font-size:40px;line-height:125%;font-family:sans-serif;letter-spacing:0px;word-spacing:0px;fill:#000000;fill-opacity:1;stroke:none;stroke-width:1px;stroke-linecap:butt;stroke-linejoin:miter;stroke-opacity:1"
         transform="translate(-25.714286,-94.285714)">
        <path
           inkscape:connector-curvature="0"
           id="path4139"
           style="font-style:normal;font-variant:normal;font-weight:normal;font-stretch:normal;font-size:180px;font-family:'Lemon/Milk';-inkscape-font-specification:'Lemon/Milk';fill:#ffffff"
           d="m 287.8125,558.70206 c 3.86719,0 7.20703,1.40625 10.01953,4.21875 2.8125,2.8125 4.21875,6.15234 4.21875,10.01953 0,3.95508 -1.40625,7.29492 -4.21875,10.01953 -2.8125,2.72461 -6.15234,4.13086 -10.01953,4.13086 -3.95508,0 -7.29492,-1.40625 -10.01953,-4.13086 -2.72461,-2.72461 -4.13086,-6.06445 -4.13086,-10.01953 h -28.38867 c 0,9.93164 2.98828,18.7207 9.05273,26.36719 6.06445,7.64648 13.62305,12.65625 22.76367,15.0293 v 14.50195 h 21.26953 v -14.50195 c 9.14063,-2.37305 16.69922,-7.38282 22.76368,-15.0293 6.06445,-7.64649 9.05273,-16.43555 9.05273,-26.36719 0,-11.68945 -4.13086,-21.70898 -12.48047,-30.05859 -8.34961,-8.34961 -18.36914,-12.48047 -30.05859,-12.48047 -3.95508,0 -7.29492,-1.40625 -10.01953,-4.21875 -2.72461,-2.8125 -4.13086,-6.15235 -4.13086,-10.10742 0,-3.86719 1.40625,-7.20703 4.13086,-10.01953 2.72461,-2.8125 6.06445,-4.21875 10.01953,-4.21875 3.86719,0 7.20703,1.40625 10.01953,4.21875 2.8125,2.8125 4.21875,6.15234 4.21875,10.01953 h 28.30078 c 0,-9.84375 -2.98828,-18.54493 -9.05273,-26.10352 C 315.05859,482.413 307.5,477.40323 298.35937,475.03018 v -14.58984 h -21.26953 v 14.58984 c -9.14062,2.37305 -16.78711,7.38282 -22.85156,14.94141 -6.06445,7.55859 -9.14062,16.25977 -9.14062,26.10352 0,11.68945 4.13086,21.70898 12.48046,30.05859 8.34961,8.34961 18.36915,12.48047 30.0586,12.48047 l 0.17578,0.0879 z" />
        <path
           inkscape:connector-curvature="0"
           id="path4141"
           style="font-style:normal;font-variant:normal;font-weight:normal;font-stretch:normal;font-size:180px;font-family:'Lemon/Milk';-inkscape-font-specification:'Lemon/Milk';fill:#ffffff"
           d="M 337.38281,625.76261 H 460.42969 V 606.33878 H 337.38281 Z" />
      </g>
    </g>
  </g>
</svg>
